<?xml version="1.0" encoding="UTF-8" standalone="no" ?>
<!DOCTYPE svg PUBLIC "-//W3C//DTD SVG 1.1//EN" "http://www.w3.org/Graphics/SVG/1.1/DTD/svg11.dtd">
<svg xmlns="http://www.w3.org/2000/svg" xmlns:xlink="http://www.w3.org/1999/xlink" version="1.1" width="1080" height="1080" viewBox="0 0 1080 1080" xml:space="preserve">
<desc>Created with Fabric.js 5.2.4</desc>
<defs>
</defs>
<rect x="0" y="0" width="100%" height="100%" fill="transparent"></rect>
<g transform="matrix(1 0 0 1 540 540)" id="4f779470-8136-4ed5-9b13-175bc048b36c"  >
<rect style="stroke: none; stroke-width: 1; stroke-dasharray: none; stroke-linecap: butt; stroke-dashoffset: 0; stroke-linejoin: miter; stroke-miterlimit: 4; fill: rgb(255,255,255); fill-rule: nonzero; opacity: 1; visibility: hidden;" vector-effect="non-scaling-stroke"  x="-540" y="-540" rx="0" ry="0" width="1080" height="1080" />
</g>
<g transform="matrix(1 0 0 1 540 540)" id="08cd04b0-6173-4728-9caa-9821005d498f"  >
</g>
<g transform="matrix(1 0 0 1 540 540)" id="f82ee20e-73e7-4d84-9cf5-75757e432d09"  >
<path style="stroke: rgb(0,0,0); stroke-width: 0; stroke-dasharray: none; stroke-linecap: butt; stroke-dashoffset: 0; stroke-linejoin: miter; stroke-miterlimit: 4; fill: rgb(0,0,0); fill-rule: nonzero; opacity: 1;" vector-effect="non-scaling-stroke"  transform=" translate(-320.01, -320)" d="M 319.988 7.973 C 143.293 7.973 0 151.242 0 327.96 C 0 469.352 91.678 589.258 218.826 631.5899999999999 C 234.82999999999998 634.554 240.712 624.6329999999999 240.712 616.1759999999999 C 240.712 608.5459999999999 240.393 583.3409999999999 240.26299999999998 556.6239999999999 C 151.231 575.983 132.46299999999997 518.8519999999999 132.46299999999997 518.8519999999999 C 117.91099999999997 481.85899999999987 96.93399999999997 472.02099999999984 96.93399999999997 472.02099999999984 C 67.90199999999997 452.1419999999998 99.14299999999997 452.57899999999984 99.14299999999997 452.57899999999984 C 131.26899999999998 454.82399999999984 148.18299999999996 485.53299999999984 148.18299999999996 485.53299999999984 C 176.74299999999997 534.4549999999998 223.06599999999997 520.2929999999999 241.31399999999996 512.1309999999999 C 244.19599999999997 491.4499999999999 252.46399999999997 477.32399999999984 261.62899999999996 469.32799999999986 C 190.54899999999998 461.26099999999985 115.83199999999997 433.81199999999984 115.83199999999997 311.1879999999999 C 115.83199999999997 276.2619999999999 128.35199999999998 247.70299999999986 148.79699999999997 225.30799999999988 C 145.46699999999996 217.22999999999988 134.50599999999997 184.70199999999988 151.87999999999997 140.63399999999987 C 151.87999999999997 140.63399999999987 178.74999999999997 132.0239999999999 239.90899999999996 173.43399999999986 C 265.42099999999994 166.35899999999987 292.787 162.79199999999986 319.965 162.67399999999986 C 347.16499999999996 162.79199999999986 374.57899999999995 166.34699999999987 400.12699999999995 173.43399999999986 C 461.203 132.04799999999986 488.049 140.63399999999984 488.049 140.63399999999984 C 505.447 184.71399999999983 494.534 217.26499999999984 491.203 225.30899999999986 C 511.719 247.70299999999986 524.1329999999999 276.26199999999983 524.1329999999999 311.1879999999999 C 524.1329999999999 434.09499999999986 449.24999999999994 461.1179999999999 378.01599999999996 469.04399999999987 C 389.49699999999996 478.96499999999986 399.74899999999997 498.4419999999999 399.74899999999997 528.2769999999998 C 399.74899999999997 571.0689999999998 399.383 605.5569999999998 399.383 616.0809999999998 C 399.383 624.5969999999998 405.147 634.5539999999997 421.375 631.4349999999998 C 548.451 589.0809999999998 640.012 469.16099999999983 640.012 327.85299999999984 C 640.012 151.15799999999984 496.74299999999994 7.864999999999839 320.01199999999994 7.864999999999839 L 319.9889999999999 7.971999999999839 z" stroke-linecap="round" />
</g>
</svg>