<svg width="3333" height="3333" xmlns="http://www.w3.org/2000/svg" clip-rule="evenodd" fill-rule="evenodd" image-rendering="optimizeQuality" text-rendering="geometricPrecision" shape-rendering="geometricPrecision">

 <g>
  <title>Layer 1</title>
  <path fill="#ffffff" stroke="null" id="svg_1" d="m1658.66671,-11.11112c918.467,0 1664.22227,746 1664.22227,1667c0,920 -744.75694,1667 -1664.22227,1667c-918.467,0 -1664.22227,-746 -1664.22227,-1667c0,-920 744.75694,-1667 1664.22227,-1667zm-214.64174,1336l341.43012,0l0,175l4.99167,0c47.92001,-86 163.72672,-175 337.43679,-175c360.39846,0 427.28682,225 427.28682,517l0,596l-356.40513,0l0,-528c0,-126 -2.995,-288 -185.69007,-288c-185.69007,0 -213.64341,137 -213.64341,279l0,537l-356.40513,0l0,-1113l0.99834,0zm-246.58843,-309c0,102 -82.86169,186 -185.69006,186c-101.83004,0 -185.69007,-83 -185.69007,-186c0,-102 82.8617,-186 185.69007,-186c101.83003,0 185.69006,83 185.69006,186zm-370.3818,309l370.3818,0l0,1113l-370.3818,0l0,-1113z"/>
  <path stroke="null" fill="none" d="m201.69432,268.68518c0,0 5.84151,0 11.68301,0c0,0 11.2983,0.86704 23.36602,6.00906c17.06633,7.27187 29.66568,4.74624 46.73203,12.01814c12.06772,5.14201 27.47067,9.26214 46.73201,18.0272c22.0262,10.02322 44.6729,17.86206 70.09806,24.03629c11.37044,2.76119 28.17796,8.93103 40.89052,12.01814c17.05569,4.14178 34.66429,6.87616 46.73201,12.01814c17.06631,7.27187 34.33962,8.9743 52.57356,12.01814c11.5321,1.92511 24.25525,-4.59915 35.049,0c7.63228,3.25209 11.68298,12.01814 17.52447,12.01814c5.84155,0 5.84155,0 5.84155,0c5.84149,0 10.82269,1.04014 17.52447,6.00906c10.59647,7.85659 23.15475,6.70534 40.89055,12.01814c23.12465,6.92706 35.82592,9.43124 58.41502,18.0272c24.50131,9.3236 41.34871,16.76441 58.41502,24.03629c12.06778,5.14201 25.62594,17.53213 40.89055,24.03629c16.19049,6.89868 30.29409,10.17067 40.89049,18.0272c6.70184,4.96895 10.65346,8.93103 23.36602,12.01814c5.68522,1.38059 5.84149,6.00909 11.68304,6.00909c0,0 0.44468,3.7095 5.84149,6.00906c7.63228,3.25209 11.83925,4.62843 17.52453,6.00906c12.71256,3.08712 19.78439,17.53213 35.049,24.03632c5.39681,2.29959 17.52453,6.00906 23.36602,12.01811c5.84149,6.00906 11.68298,12.01811 17.52447,12.01811l5.84155,0l0,6.00912" id="svg_2"/>
 </g>
</svg>